<svg xmlns="http://www.w3.org/2000/svg" width="47" height="57" viewBox="0 0 47 57" fill="none">
    <path d="M43.4496 0C45.3657 0 47 1.63429 47 3.494V52.8609C47 54.7206 45.3657 56.3549 43.4496 56.3549H3.55036C1.69065 56.3549 0 54.7206 0 52.8609V3.494C0 1.63429 1.69065 0 3.55036 0H43.4496ZM44.6331 11.7218H2.36691V52.8609C2.36691 53.3118 2.81775 53.7626 3.32494 53.988H43.4496C43.9568 53.988 44.4077 53.5372 44.6331 53.0863V11.7218ZM10.5947 44.6331C11.271 44.6331 11.7782 45.0839 11.7782 45.7602V48.1271C11.7782 48.8597 11.271 49.3106 10.5947 49.3106H8.22782C7.55156 49.3106 7.04436 48.8597 7.04436 48.1271V45.7602C7.04436 45.0839 7.55156 44.6331 8.22782 44.6331H10.5947ZM38.7722 45.7602C39.4484 45.7602 39.9556 46.2674 39.9556 46.9436C39.9556 47.6199 39.4484 48.1271 38.7722 48.1271H15.2722C14.5959 48.1271 14.0887 47.6763 14.0887 46.9436C14.0887 46.211 14.5959 45.7602 15.2722 45.7602H38.7722ZM10.5947 35.2218C11.0456 35.2218 11.5528 35.6727 11.7782 36.1799V38.7158C11.7782 39.223 11.271 39.6739 10.8201 39.8993H8.22782C7.77698 39.8993 7.32614 39.4484 7.04436 38.9976V36.4053C7.04436 35.8981 7.55156 35.4472 8.0024 35.2218H10.5947ZM38.7722 36.4053C39.4484 36.4053 39.9556 36.8561 39.9556 37.5887C39.9556 38.0396 39.4484 38.4904 38.9976 38.7158H15.2722C14.5959 38.7158 14.0887 38.265 14.0887 37.5887C14.0887 37.0815 14.5959 36.6307 15.0468 36.4053H38.7722ZM10.5947 25.8106C11.271 25.8106 11.7782 26.3177 11.7782 26.994V29.3609C11.7782 30.0372 11.271 30.5444 10.5947 30.5444H8.22782C7.55156 30.5444 7.04436 30.0372 7.04436 29.3609V26.994C7.04436 26.3177 7.55156 25.8106 8.22782 25.8106H10.5947ZM38.7722 26.994C39.4484 26.994 39.9556 27.4448 39.9556 28.1775C39.9556 28.9101 39.4484 29.3609 38.7722 29.3609H15.2722C14.5959 29.3609 14.0887 28.8537 14.0887 28.1775C14.0887 27.5012 14.5959 26.994 15.2722 26.994H38.7722ZM10.5947 16.4556C11.0456 16.4556 11.5528 16.9065 11.7782 17.3573V19.9496C11.7782 20.4005 11.271 20.9077 10.8201 21.1331H8.22782C7.77698 21.1331 7.32614 20.6823 7.04436 20.1751V17.5827C7.04436 17.1319 7.55156 16.6811 8.0024 16.4556H10.5947ZM38.7722 17.5827C39.4484 17.5827 39.9556 18.0899 39.9556 18.7662C39.9556 19.2734 39.4484 19.7242 38.9976 19.9496H15.2722C14.5959 19.9496 14.0887 19.4988 14.0887 18.7662C14.0887 18.3153 14.5959 17.8645 15.0468 17.5827H38.7722ZM43.4496 2.36691H3.55036C3.09952 2.36691 2.59233 2.81775 2.36691 3.26859V9.41127H44.6331V3.494C44.6331 3.04317 44.1823 2.59233 43.4496 2.36691Z" fill="#1B1B22"/>
</svg>