<svg width="100" height="30" viewBox="0 0 100 30" fill="none" xmlns="http://www.w3.org/2000/svg">
    <path d="M1.80664 24V6.32422H8.10547C12.2192 6.32422 14.2334 8.60693 14.2334 11.8662C14.2334 14.2466 13.1592 16.041 11.0107 16.8589L14.917 24H11.8652L8.27637 17.335H8.10547H4.49219V24H1.80664ZM4.49219 15.0156H7.83691C10.437 15.0034 11.5234 13.856 11.5234 11.8662C11.5234 9.87646 10.437 8.63135 7.83691 8.61914H4.49219V15.0156ZM22.5342 24.2686C18.6279 24.2686 16.2231 21.5708 16.2354 17.457C16.2231 13.3799 18.6646 10.5723 22.3633 10.5723C25.3784 10.5723 28.2471 12.4399 28.2471 17.2373V18.165H18.8232C18.8965 20.6919 20.3857 22.1201 22.5586 22.1201C24.0356 22.1201 25 21.4854 25.4395 20.6797H28.0762C27.4902 22.8281 25.4517 24.2686 22.5342 24.2686ZM18.8354 16.2119H25.6836C25.6836 14.1978 24.3774 12.7085 22.3877 12.7207C20.3003 12.7085 18.9453 14.3442 18.8354 16.2119ZM36.4502 24.2686C32.5806 24.2686 30.2368 21.4243 30.249 17.4326C30.2368 13.3921 32.666 10.5723 36.4014 10.5723C39.4287 10.5723 41.6138 12.3545 41.8945 15.04H39.3555C39.0869 13.7949 38.0981 12.7573 36.4502 12.7451C34.3018 12.7573 32.8613 14.5396 32.8613 17.3594C32.8613 20.2646 34.2651 22.0591 36.4502 22.0469C37.9272 22.0591 39.0259 21.229 39.3555 19.8008H41.8945C41.6138 22.3765 39.5752 24.2686 36.4502 24.2686ZM46.9727 16.1387V24H44.3604V6.32422H46.9238V12.916H47.0947C47.7173 11.4756 48.9624 10.5723 51.0254 10.5723C53.7476 10.5723 55.5664 12.2568 55.5664 15.5771V24H52.9541V15.8945C52.9541 13.9414 51.9043 12.8184 50.1465 12.8184C48.3032 12.8184 46.9727 14.0269 46.9727 16.1387ZM64.917 10.7432V12.8184H62.207V20.0938C62.2192 21.5952 62.9517 21.8638 63.7939 21.876C64.1724 21.876 64.7461 21.8394 65.1123 21.8027V24.0732C64.7583 24.1221 64.1968 24.1709 63.4766 24.1709C61.438 24.1709 59.5947 23.0479 59.6191 20.6309V12.8184H57.666V10.7432H59.6191V7.56934H62.207V10.7432H64.917ZM74.6826 14.3564C74.4385 13.3066 73.6084 12.623 72.168 12.623C70.6787 12.623 69.6167 13.3921 69.6289 14.4053C69.6167 15.1865 70.2393 15.748 71.7041 16.0898L73.8037 16.5781C76.2451 17.1274 77.4292 18.2871 77.4414 20.167C77.4292 22.5596 75.4028 24.2686 72.0215 24.2686C68.8354 24.2686 66.9556 22.8525 66.626 20.3867H69.2871C69.519 21.583 70.4224 22.1812 71.9971 22.1689C73.6816 22.1812 74.7681 21.4731 74.7803 20.3623C74.7681 19.5078 74.1333 18.9585 72.7295 18.6289L70.6543 18.1895C68.2617 17.6646 67.0166 16.3828 67.0166 14.5518C67.0166 12.1958 69.0674 10.5723 72.1436 10.5723C75.0977 10.5723 76.9409 12.0737 77.1973 14.3564H74.6826Z" fill="url(#paint0_linear_140_51)"/>
    <mask id="mask0_140_51" style="mask-type:alpha" maskUnits="userSpaceOnUse" x="84" y="5" width="16" height="20">
        <rect x="84" y="5" width="16" height="20" fill="#D9D9D9"/>
    </mask>
    <g mask="url(#mask0_140_51)">
        <path d="M86 25C85.45 25 84.9792 24.8042 84.5875 24.4125C84.1958 24.0208 84 23.55 84 23V7C84 6.45 84.1958 5.97917 84.5875 5.5875C84.9792 5.19583 85.45 5 86 5H98C98.55 5 99.0208 5.19583 99.4125 5.5875C99.8042 5.97917 100 6.45 100 7V23C100 23.55 99.8042 24.0208 99.4125 24.4125C99.0208 24.8042 98.55 25 98 25H86ZM86 23H98V7H96V14L93.5 12.5L91 14V7H86V23Z" fill="url(#paint1_linear_140_51)"/>
    </g>
    <defs>
        <linearGradient id="paint0_linear_140_51" x1="39.5" y1="0" x2="39.5" y2="30" gradientUnits="userSpaceOnUse">
            <stop stop-color="#84FF9F"/>
            <stop offset="1" stop-color="#33FF00"/>
        </linearGradient>
        <linearGradient id="paint1_linear_140_51" x1="92" y1="5" x2="92" y2="25" gradientUnits="userSpaceOnUse">
            <stop stop-color="#84FF9F"/>
            <stop offset="1" stop-color="#33FF00"/>
        </linearGradient>
    </defs>
</svg>
