<svg xmlns="http://www.w3.org/2000/svg" width="54" height="55" viewBox="0 0 54 55" fill="none">
    <path d="M26.8461 0.332153C12.0194 0.332153 0 12.3515 0 27.1782C0 42.005 12.0194 54.0243 26.8461 54.0243C41.6728 54.0243 53.6922 42.005 53.6922 27.1782C53.6922 12.3515 41.6728 0.332153 26.8461 0.332153ZM26.8461 5.52817C38.8112 5.52817 48.4962 15.2113 48.4962 27.1782C48.4962 39.1434 38.8131 48.8283 26.8461 48.8283C14.881 48.8283 5.19602 39.1452 5.19602 27.1782C5.19602 15.2131 14.8791 5.52817 26.8461 5.52817ZM42.0232 19.6296L39.5837 17.1704C39.0785 16.6611 38.256 16.6577 37.7467 17.163L22.4453 32.3415L15.9728 25.8165C15.4676 25.3071 14.6451 25.3038 14.1358 25.809L11.6764 28.2485C11.1671 28.7537 11.1638 29.5762 11.6691 30.0856L21.4961 39.9923C22.0013 40.5016 22.8238 40.505 23.3332 39.9996L42.016 21.4667C42.5252 20.9614 42.5284 20.1389 42.0232 19.6296Z" fill="#1B1B22"/>
</svg>