<svg xmlns="http://www.w3.org/2000/svg" width="54" height="54" viewBox="0 0 54 54" fill="none">
    <path d="M21.0939 2.69368C23.276 -0.30676 27.6226 -0.647793 30.2459 1.97558L39.5437 11.2734C42.2378 13.9675 41.7937 18.4528 38.6235 20.5662L33.2334 24.1596L51.6744 42.253C54.347 44.8752 54.3672 49.174 51.7195 51.8212C49.0898 54.4504 44.8266 54.4504 42.1972 51.8209L23.7558 33.379L20.492 38.5077C18.4183 41.7665 13.8602 42.2667 11.1291 39.5355L1.90757 30.314C-0.715984 27.6907 -0.374921 23.3441 2.62565 21.1619L13.0606 13.5727C13.231 13.4489 13.3807 13.2991 13.5047 13.1288L21.0939 2.69368ZM27.3999 4.82175C26.5253 3.94728 25.0763 4.06098 24.3491 5.06111L23.1155 6.75726L34.7017 18.3432L36.3908 17.2172C37.4475 16.5127 37.5956 15.0176 36.6975 14.1195L27.3999 4.82175ZM31.2862 20.6202L20.7187 10.0528L16.7599 15.4963C16.3883 16.0071 15.9391 16.4564 15.4281 16.828L10.1732 20.6497L20.5084 30.9846L23.338 26.5382C23.7891 25.8292 24.3834 25.2222 25.0825 24.7559L31.2862 20.6202ZM18.2948 34.4633L6.87777 23.0466L4.99295 24.4172C3.99285 25.1444 3.87907 26.5935 4.75359 27.468L13.9751 36.6892C14.8856 37.5997 16.4049 37.433 17.0961 36.3468L18.2948 34.4633ZM25.9693 29.9002L45.0434 48.9746C46.101 50.0324 47.8158 50.0324 48.8736 48.9749C49.9386 47.9101 49.9304 46.1809 48.8554 45.1261L29.8114 26.441L27.3153 28.105C27.0821 28.2604 26.8841 28.4627 26.7338 28.6991L25.9693 29.9002Z" fill="#1B1B22"/>
    <path d="M19.4546 45.6855C20.5661 45.6855 21.4672 46.5866 21.4672 47.6981C21.4672 48.8096 20.5661 49.7106 19.4546 49.7106H24.8214C25.9329 49.7106 26.834 50.6117 26.834 51.7232C26.834 52.8347 25.9329 53.7357 24.8214 53.7357H2.01256C0.901094 53.7357 9.05991e-06 52.8347 9.05991e-06 51.7232C9.05991e-06 50.6117 0.901094 49.7106 2.01256 49.7106H7.37935C6.26789 49.7106 5.3668 48.8096 5.3668 47.6981C5.3668 46.5866 6.26789 45.6855 7.37935 45.6855H19.4546Z" fill="#1B1B22"/>
</svg>