
<svg xmlns="http://www.w3.org/2000/svg" width="58" height="56" viewBox="0 0 58 56" fill="none">
    <path d="M55.5617 40.7009V8.3765C55.5617 5.1628 52.9372 2.7793 49.7503 3.04711H49.5896C43.9656 3.52917 35.4225 6.39472 30.6555 9.39417L30.2002 9.68876C29.4236 10.1708 28.1381 10.1708 27.3615 9.68876L26.692 9.28705C21.925 6.31438 13.4086 3.4756 7.78466 3.02033C4.59774 2.75252 2 5.1628 2 8.34972V40.7009C2 43.2719 4.08891 45.6821 6.65987 46.0035L7.43651 46.1106C13.248 46.8873 22.2195 49.8332 27.3615 52.6451L27.4686 52.6987C28.1917 53.1004 29.3433 53.1004 30.0396 52.6987C35.1815 49.8599 44.1799 46.8873 50.0181 46.1106L50.9018 46.0035C53.4728 45.6821 55.5617 43.2719 55.5617 40.7009Z" stroke="#1B1B22" stroke-width="4.02691" stroke-linecap="round" stroke-linejoin="round"/>
    <path d="M28.7809 10.5726V50.7439" stroke="#1B1B22" stroke-width="4.02691" stroke-linecap="round" stroke-linejoin="round"/>
    <path d="M17.399 18.6069H11.3733" stroke="#1B1B22" stroke-width="4.02691" stroke-linecap="round" stroke-linejoin="round"/>
    <path d="M19.4075 26.6411H11.3733" stroke="#1B1B22" stroke-width="4.02691" stroke-linecap="round" stroke-linejoin="round"/>
</svg>