<svg width="135" height="52" viewBox="0 0 135 52" fill="none" xmlns="http://www.w3.org/2000/svg">
    <path d="M32.5862 24.2449L18.3695 13.0725C17.8676 12.6942 17.4656 12.2284 17.1903 11.7064C16.9151 11.1843 16.773 10.6179 16.7734 10.045C16.8159 8.89593 17.3865 7.80778 18.3609 7.01769C19.3353 6.22759 20.6344 5.79957 21.9754 5.82688H37.6995V0H13.6552C6.19212 0 0 4.30683 0 11.0457C0.00906425 13.8402 1.29877 16.5197 3.59113 18.5067L20.335 32.0479C21.1551 32.5804 21.7687 33.3125 22.0956 34.1487C22.4226 34.9849 22.4476 35.8861 22.1675 36.7347C21.1773 39.6228 16.9064 39.6228 15.3103 39.6228H0V51.4286H23.2463C32.6453 51.4286 40.2709 45.2723 40.2709 37.6594V37.4947C40.5369 31.8072 36.9606 27.741 32.5862 24.2449Z" fill="#005293"/>
    <path d="M126.429 24.2449L112.227 13.0725C111.72 12.6969 111.313 12.232 111.035 11.7096C110.757 11.1871 110.614 10.6193 110.616 10.045C110.658 8.89593 111.229 7.80778 112.203 7.01769C113.178 6.22759 114.477 5.79957 115.818 5.82688H131.527V0H107.498C100.108 0 93.8423 4.30683 93.8423 11.0457C93.8569 13.8417 95.1518 16.521 97.4483 18.5067L114.177 32.0479C115 32.5788 115.617 33.3102 115.946 34.1465C116.276 34.9828 116.303 35.8849 116.025 36.7347C115.049 39.6228 110.764 39.6228 109.167 39.6228H93.8571V51.4286H117.103C126.502 51.4286 134.128 45.2723 134.128 37.6594V37.4947C134.379 31.8198 130.818 27.741 126.429 24.2449Z" fill="#005293"/>
    <path d="M90.6059 36.456C90.6708 33.2537 89.534 30.1182 87.3629 27.5116C85.1918 24.9049 82.1013 22.9649 78.5468 21.9775C81.3199 21.3795 83.7621 19.9699 85.4513 17.9924C87.1405 16.0148 87.9706 13.5935 87.798 11.1471C87.8045 9.46378 87.3411 7.8036 86.4464 6.30515C85.5518 4.8067 84.2518 3.51345 82.6552 2.5334C78.133 -0.139368 71.3793 0.0633062 71.3793 0.0633062H44.7783V51.3652H73.0049C77.1633 51.2395 81.1744 50.0138 84.4877 47.8564C86.3955 46.439 87.9283 44.6887 88.9834 42.7226C90.0385 40.7566 90.5917 38.62 90.6059 36.456ZM59.202 5.91552H65.5567C66.532 5.91552 73.1823 5.91552 73.7439 11.4764C74.1281 15.4539 70.9803 17.9493 65.867 17.9493H59.202V5.91552ZM66.8424 39.5594H59.202V25.8916H66.5911C67.5517 25.8916 74.9852 25.8916 75.4581 32.2252C75.8867 36.7347 71.9557 39.5594 66.8424 39.5594Z" fill="#005293"/>
</svg>
