<svg xmlns="http://www.w3.org/2000/svg" width="79" height="57" viewBox="0 0 79 57" fill="none">
<path d="M38.6026 56.9978C37.8569 56.9978 36.9907 56.8678 36.0462 56.4887C32.2731 54.9768 29.1698 50.2693 26.8076 42.4873C17.4506 41.3986 10.4067 38.0906 5.80521 32.6029C-2.0849 23.19 0.31964 10.9959 0.426806 10.4824C0.440202 10.4162 0.458063 10.3501 0.478156 10.284C1.77085 6.16712 4.04366 3.4387 7.23632 2.17366C12.7777 -0.0192115 18.8661 3.26459 19.1206 3.40564C19.1452 3.41887 19.1697 3.43209 19.1943 3.44752C39.2456 15.5315 50.0404 16.8494 54.2221 16.7216C53.0589 12.2697 53.1102 5.39796 58.9821 0.487685C59.6608 -0.0809205 60.6297 -0.160261 61.3933 0.291538C62.1569 0.741133 62.5476 1.62049 62.3645 2.48001C62.331 2.65191 61.5407 7.08615 65.4567 13.2284C66.803 13.9226 71.4826 16.0582 76.573 15.2075C77.3387 15.0775 78.1135 15.3838 78.5801 15.9943C79.0467 16.6048 79.1316 17.4246 78.7989 18.1166C77.0329 21.7817 71.2794 27.6243 61.6925 25.0567C59.7546 28.5014 54.3248 36.4002 43.0701 41.6455C44.2824 44.2659 45.9368 48.8412 44.7758 52.4291C44.1931 54.2253 42.9652 55.6027 41.217 56.4138C40.8665 56.5923 39.9199 57 38.6026 57V56.9978ZM31.2818 42.8312C33.664 49.9387 36.1356 52.0214 37.4818 52.6253C38.4441 53.0572 39.1005 52.8479 39.2702 52.7795C39.3349 52.7355 39.3238 52.7509 39.422 52.7068C40.1476 52.3762 40.5763 51.9046 40.8107 51.1795C41.7261 48.3563 39.3305 43.2389 38.4195 41.6675C38.1226 41.1562 38.0623 40.5413 38.2566 39.9837C38.4486 39.4261 38.875 38.9765 39.4265 38.7495C53.7845 32.8519 58.6695 21.8809 58.7186 21.7707C59.154 20.7657 60.3105 20.2676 61.3486 20.6423C65.4433 22.1167 68.9641 21.8699 71.813 19.9084C72.0295 19.7585 72.235 19.6043 72.4292 19.4478C67.1066 19.007 63.1258 16.6643 62.9115 16.5365C62.6458 16.3778 62.4203 16.1618 62.2506 15.9061C60.1988 12.8185 59.1383 9.9997 58.6114 7.69663C56.6266 12.4196 58.7878 17.299 58.9084 17.5635C59.1428 18.0792 59.154 18.672 58.9352 19.1966C58.7164 19.7211 58.2899 20.1332 57.7541 20.3338C56.5864 20.7723 45.526 24.1201 17.0755 6.98697C16.7027 6.79303 12.3156 4.58473 8.77237 5.99963C6.83445 6.77319 5.39664 8.587 4.49242 11.3926C4.30935 12.4284 2.72864 22.5201 9.04252 30.0177C13.1282 34.8707 19.6654 37.7247 28.5223 38.538C28.5826 38.5402 28.6451 38.5468 28.7054 38.5534C30.6879 38.7297 32.7866 38.8024 34.9991 38.7738C35.0081 38.7738 35.017 38.7738 35.0282 38.7738C36.1646 38.7738 37.0934 39.6752 37.109 40.8014C37.1246 41.9364 36.2048 42.8686 35.055 42.884C33.7645 42.9017 32.5098 42.884 31.2885 42.8356L31.2818 42.8312Z" fill="#DBDBDB"/>
<path d="M14.7314 52.2793C14.075 52.2793 13.5927 52.1867 13.403 52.1426C11.4829 51.7327 10.0317 50.6462 9.20338 48.9977C6.81223 44.2394 10.5943 36.0321 11.0341 35.1109C11.5231 34.0839 12.7644 33.6431 13.8048 34.128C14.8452 34.6128 15.2895 35.836 14.8006 36.863C13.3762 39.8581 11.858 45.035 12.9341 47.1728C13.1216 47.5431 13.4275 47.9464 14.2982 48.1293C14.3273 48.1359 14.3585 48.1425 14.3876 48.1492C14.3876 48.1492 15.4235 48.3497 16.3411 47.5894C17.1716 46.8995 18.5358 44.8984 18.3326 39.241C18.2924 38.106 19.1899 37.1539 20.3397 37.1142C21.4895 37.079 22.454 37.9605 22.4942 39.0956C22.6996 44.8301 21.4918 48.7795 18.8997 50.8335C17.4016 52.0214 15.8276 52.2815 14.7336 52.2815L14.7314 52.2793Z" fill="#DBDBDB"/>
<path d="M31.4915 42.1986C30.7748 42.1986 30.076 41.8328 29.6897 41.176C22.2149 28.4728 1.48047 19.0842 1.2706 18.9894C0.223498 18.52 -0.240889 17.3034 0.234661 16.2698C0.707979 15.2362 1.94262 14.7778 2.98973 15.245C3.88948 15.6483 25.1419 25.2617 33.291 39.111C33.8692 40.0917 33.5299 41.3501 32.5363 41.9209C32.2081 42.1105 31.8465 42.1986 31.4937 42.1986H31.4915Z" fill="#DBDBDB"/>
<path d="M22.416 20.4704C23.6034 20.4704 24.5661 19.5202 24.5661 18.3481C24.5661 17.176 23.6034 16.2257 22.416 16.2257C21.2285 16.2257 20.2659 17.176 20.2659 18.3481C20.2659 19.5202 21.2285 20.4704 22.416 20.4704Z" fill="#DBDBDB"/>
</svg>