<svg width="150" height="43" viewBox="0 0 150 43" fill="none" xmlns="http://www.w3.org/2000/svg">
    <path d="M2.60156 34V8.54688H11.6719C17.5957 8.54688 20.4961 11.834 20.4961 16.5273C20.4961 19.9551 18.9492 22.5391 15.8555 23.7168L21.4805 34H17.0859L11.918 24.4023H11.6719H6.46875V34H2.60156ZM6.46875 21.0625H11.2852C15.0293 21.0449 16.5938 19.3926 16.5938 16.5273C16.5938 13.6621 15.0293 11.8691 11.2852 11.8516H6.46875V21.0625ZM32.4492 34.3867C26.8242 34.3867 23.3613 30.502 23.3789 24.5781C23.3613 18.707 26.877 14.6641 32.2031 14.6641C36.5449 14.6641 40.6758 17.3535 40.6758 24.2617V25.5977H27.1055C27.2109 29.2363 29.3555 31.293 32.4844 31.293C34.6113 31.293 36 30.3789 36.6328 29.2188H40.4297C39.5859 32.3125 36.6504 34.3867 32.4492 34.3867ZM27.123 22.7852H36.9844C36.9844 19.8848 35.1035 17.7402 32.2383 17.7578C29.2324 17.7402 27.2812 20.0957 27.123 22.7852ZM52.4883 34.3867C46.916 34.3867 43.541 30.291 43.5586 24.543C43.541 18.7246 47.0391 14.6641 52.418 14.6641C56.7773 14.6641 59.9238 17.2305 60.3281 21.0977H56.6719C56.2852 19.3047 54.8613 17.8105 52.4883 17.793C49.3945 17.8105 47.3203 20.377 47.3203 24.4375C47.3203 28.6211 49.3418 31.2051 52.4883 31.1875C54.6152 31.2051 56.1973 30.0098 56.6719 27.9531H60.3281C59.9238 31.6621 56.9883 34.3867 52.4883 34.3867ZM67.6406 22.6797V34H63.8789V8.54688H67.5703V18.0391H67.8164C68.7129 15.9648 70.5059 14.6641 73.4766 14.6641C77.3965 14.6641 80.0156 17.0898 80.0156 21.8711V34H76.2539V22.3281C76.2539 19.5156 74.7422 17.8984 72.2109 17.8984C69.5566 17.8984 67.6406 19.6387 67.6406 22.6797ZM93.4805 14.9102V17.8984H89.5781V28.375C89.5957 30.5371 90.6504 30.9238 91.8633 30.9414C92.4082 30.9414 93.2344 30.8887 93.7617 30.8359V34.1055C93.252 34.1758 92.4434 34.2461 91.4062 34.2461C88.4707 34.2461 85.8164 32.6289 85.8516 29.1484V17.8984H83.0391V14.9102H85.8516V10.3398H89.5781V14.9102H93.4805ZM107.543 20.1133C107.191 18.6016 105.996 17.6172 103.922 17.6172C101.777 17.6172 100.248 18.7246 100.266 20.1836C100.248 21.3086 101.145 22.1172 103.254 22.6094L106.277 23.3125C109.793 24.1035 111.498 25.7734 111.516 28.4805C111.498 31.9258 108.58 34.3867 103.711 34.3867C99.123 34.3867 96.416 32.3477 95.9414 28.7969H99.7734C100.107 30.5195 101.408 31.3809 103.676 31.3633C106.102 31.3809 107.666 30.3613 107.684 28.7617C107.666 27.5312 106.752 26.7402 104.73 26.2656L101.742 25.6328C98.2969 24.877 96.5039 23.0312 96.5039 20.3945C96.5039 17.002 99.457 14.6641 103.887 14.6641C108.141 14.6641 110.795 16.8262 111.164 20.1133H107.543Z" fill="#DBDBDB"/>
    <mask id="mask0_284_3" style="mask-type:alpha" maskUnits="userSpaceOnUse" x="123" y="5" width="27" height="34">
        <rect x="123" y="5" width="27" height="33.75" fill="#D9D9D9"/>
    </mask>
    <g mask="url(#mask0_284_3)">
        <path d="M126.375 38.75C125.447 38.75 124.652 38.4195 123.991 37.7586C123.33 37.0977 123 36.3031 123 35.375V8.375C123 7.44688 123.33 6.65234 123.991 5.99141C124.652 5.33047 125.447 5 126.375 5H146.625C147.553 5 148.348 5.33047 149.009 5.99141C149.67 6.65234 150 7.44688 150 8.375V35.375C150 36.3031 149.67 37.0977 149.009 37.7586C148.348 38.4195 147.553 38.75 146.625 38.75H126.375ZM126.375 35.375H146.625V8.375H143.25V20.1875L139.031 17.6562L134.812 20.1875V8.375H126.375V35.375Z" fill="#DBDBDB"/>
    </g>
</svg>
