<svg xmlns="http://www.w3.org/2000/svg" width="46" height="54" viewBox="0 0 46 54" fill="none">
    <path d="M23.8807 26.0514C23.8807 26.0514 8.24537 27.9275 8.4085 19.5777C8.60041 9.72736 19.7039 2.10136 28.4304 0C28.4304 0 18.6333 1.72977 11.9945 5.97651C5.35572 10.2232 0 16.1402 0 21.1469C0 26.1537 5.41056 28.58 7.87252 28.984C10.3345 29.3879 15.475 29.6417 23.8807 26.0514Z" fill="#DBDBDB"/>
    <path d="M1.46538 53.36C1.46538 53.36 15.0116 48.7546 25.7711 39.5542C36.5305 30.3538 38.4565 16.1661 16.3125 20.2354C16.3125 20.2354 25.3708 16.6866 31.9123 16.6866C38.4537 16.6866 46 17.8518 46 25.0143C46.0055 34.7494 26.4565 52.3384 1.46538 53.36Z" fill="#DBDBDB"/>
    <path d="M41.1652 3.89845C42.6086 6.26005 41.4695 9.43345 38.621 10.9858C35.7724 12.5382 32.2947 11.8844 30.8513 9.52279C29.4078 7.16119 30.599 4.07194 33.3941 2.43539C35.8259 1.01118 39.7217 1.53685 41.1652 3.89845Z" fill="#DBDBDB"/>
</svg>